<svg class="rich-terminal" viewBox="0 0 1726 1026.0" xmlns="http://www.w3.org/2000/svg">
    <!-- Generated with Rich https://www.textualize.io -->
    <style>

    @font-face {
        font-family: "Fira Code";
        src: local("FiraCode-Regular"),
                url("https://cdnjs.cloudflare.com/ajax/libs/firacode/6.2.0/woff2/FiraCode-Regular.woff2") format("woff2"),
                url("https://cdnjs.cloudflare.com/ajax/libs/firacode/6.2.0/woff/FiraCode-Regular.woff") format("woff");
        font-style: normal;
        font-weight: 400;
    }
    @font-face {
        font-family: "Fira Code";
        src: local("FiraCode-Bold"),
                url("https://cdnjs.cloudflare.com/ajax/libs/firacode/6.2.0/woff2/FiraCode-Bold.woff2") format("woff2"),
                url("https://cdnjs.cloudflare.com/ajax/libs/firacode/6.2.0/woff/FiraCode-Bold.woff") format("woff");
        font-style: bold;
        font-weight: 700;
    }

    .terminal-3138022346-matrix {
        font-family: Fira Code, monospace;
        font-size: 20px;
        line-height: 24.4px;
        font-variant-east-asian: full-width;
    }

    .terminal-3138022346-title {
        font-size: 18px;
        font-weight: bold;
        font-family: arial;
    }

    .terminal-3138022346-r1 { fill: #c5c8c6 }
.terminal-3138022346-r2 { fill: #e0e0e0 }
.terminal-3138022346-r3 { fill: #94999c }
.terminal-3138022346-r4 { fill: #e0e0e0;font-weight: bold }
.terminal-3138022346-r5 { fill: #f4005f;font-weight: bold }
.terminal-3138022346-r6 { fill: #f4005f }
.terminal-3138022346-r7 { fill: #ddedf9;font-weight: bold }
.terminal-3138022346-r8 { fill: #98e024 }
.terminal-3138022346-r9 { fill: #ffa62b;font-weight: bold }
.terminal-3138022346-r10 { fill: #495259 }
    </style>

    <defs>
    <clipPath id="terminal-3138022346-clip-terminal">
      <rect x="0" y="0" width="1707.0" height="975.0" />
    </clipPath>
    <clipPath id="terminal-3138022346-line-0">
    <rect x="0" y="1.5" width="1708" height="24.65"/>
            </clipPath>
<clipPath id="terminal-3138022346-line-1">
    <rect x="0" y="25.9" width="1708" height="24.65"/>
            </clipPath>
<clipPath id="terminal-3138022346-line-2">
    <rect x="0" y="50.3" width="1708" height="24.65"/>
            </clipPath>
<clipPath id="terminal-3138022346-line-3">
    <rect x="0" y="74.7" width="1708" height="24.65"/>
            </clipPath>
<clipPath id="terminal-3138022346-line-4">
    <rect x="0" y="99.1" width="1708" height="24.65"/>
            </clipPath>
<clipPath id="terminal-3138022346-line-5">
    <rect x="0" y="123.5" width="1708" height="24.65"/>
            </clipPath>
<clipPath id="terminal-3138022346-line-6">
    <rect x="0" y="147.9" width="1708" height="24.65"/>
            </clipPath>
<clipPath id="terminal-3138022346-line-7">
    <rect x="0" y="172.3" width="1708" height="24.65"/>
            </clipPath>
<clipPath id="terminal-3138022346-line-8">
    <rect x="0" y="196.7" width="1708" height="24.65"/>
            </clipPath>
<clipPath id="terminal-3138022346-line-9">
    <rect x="0" y="221.1" width="1708" height="24.65"/>
            </clipPath>
<clipPath id="terminal-3138022346-line-10">
    <rect x="0" y="245.5" width="1708" height="24.65"/>
            </clipPath>
<clipPath id="terminal-3138022346-line-11">
    <rect x="0" y="269.9" width="1708" height="24.65"/>
            </clipPath>
<clipPath id="terminal-3138022346-line-12">
    <rect x="0" y="294.3" width="1708" height="24.65"/>
            </clipPath>
<clipPath id="terminal-3138022346-line-13">
    <rect x="0" y="318.7" width="1708" height="24.65"/>
            </clipPath>
<clipPath id="terminal-3138022346-line-14">
    <rect x="0" y="343.1" width="1708" height="24.65"/>
            </clipPath>
<clipPath id="terminal-3138022346-line-15">
    <rect x="0" y="367.5" width="1708" height="24.65"/>
            </clipPath>
<clipPath id="terminal-3138022346-line-16">
    <rect x="0" y="391.9" width="1708" height="24.65"/>
            </clipPath>
<clipPath id="terminal-3138022346-line-17">
    <rect x="0" y="416.3" width="1708" height="24.65"/>
            </clipPath>
<clipPath id="terminal-3138022346-line-18">
    <rect x="0" y="440.7" width="1708" height="24.65"/>
            </clipPath>
<clipPath id="terminal-3138022346-line-19">
    <rect x="0" y="465.1" width="1708" height="24.65"/>
            </clipPath>
<clipPath id="terminal-3138022346-line-20">
    <rect x="0" y="489.5" width="1708" height="24.65"/>
            </clipPath>
<clipPath id="terminal-3138022346-line-21">
    <rect x="0" y="513.9" width="1708" height="24.65"/>
            </clipPath>
<clipPath id="terminal-3138022346-line-22">
    <rect x="0" y="538.3" width="1708" height="24.65"/>
            </clipPath>
<clipPath id="terminal-3138022346-line-23">
    <rect x="0" y="562.7" width="1708" height="24.65"/>
            </clipPath>
<clipPath id="terminal-3138022346-line-24">
    <rect x="0" y="587.1" width="1708" height="24.65"/>
            </clipPath>
<clipPath id="terminal-3138022346-line-25">
    <rect x="0" y="611.5" width="1708" height="24.65"/>
            </clipPath>
<clipPath id="terminal-3138022346-line-26">
    <rect x="0" y="635.9" width="1708" height="24.65"/>
            </clipPath>
<clipPath id="terminal-3138022346-line-27">
    <rect x="0" y="660.3" width="1708" height="24.65"/>
            </clipPath>
<clipPath id="terminal-3138022346-line-28">
    <rect x="0" y="684.7" width="1708" height="24.65"/>
            </clipPath>
<clipPath id="terminal-3138022346-line-29">
    <rect x="0" y="709.1" width="1708" height="24.65"/>
            </clipPath>
<clipPath id="terminal-3138022346-line-30">
    <rect x="0" y="733.5" width="1708" height="24.65"/>
            </clipPath>
<clipPath id="terminal-3138022346-line-31">
    <rect x="0" y="757.9" width="1708" height="24.65"/>
            </clipPath>
<clipPath id="terminal-3138022346-line-32">
    <rect x="0" y="782.3" width="1708" height="24.65"/>
            </clipPath>
<clipPath id="terminal-3138022346-line-33">
    <rect x="0" y="806.7" width="1708" height="24.65"/>
            </clipPath>
<clipPath id="terminal-3138022346-line-34">
    <rect x="0" y="831.1" width="1708" height="24.65"/>
            </clipPath>
<clipPath id="terminal-3138022346-line-35">
    <rect x="0" y="855.5" width="1708" height="24.65"/>
            </clipPath>
<clipPath id="terminal-3138022346-line-36">
    <rect x="0" y="879.9" width="1708" height="24.65"/>
            </clipPath>
<clipPath id="terminal-3138022346-line-37">
    <rect x="0" y="904.3" width="1708" height="24.65"/>
            </clipPath>
<clipPath id="terminal-3138022346-line-38">
    <rect x="0" y="928.7" width="1708" height="24.65"/>
            </clipPath>
    </defs>

    <rect fill="#292929" stroke="rgba(255,255,255,0.35)" stroke-width="1" x="1" y="1" width="1724" height="1024" rx="8"/><text class="terminal-3138022346-title" fill="#c5c8c6" text-anchor="middle" x="862" y="27">kube-saver</text>
            <g transform="translate(26,22)">
            <circle cx="0" cy="0" r="7" fill="#ff5f57"/>
            <circle cx="22" cy="0" r="7" fill="#febc2e"/>
            <circle cx="44" cy="0" r="7" fill="#28c840"/>
            </g>
        
    <g transform="translate(9, 41)" clip-path="url(#terminal-3138022346-clip-terminal)">
    <rect fill="#242f38" x="0" y="1.5" width="12.2" height="24.65" shape-rendering="crispEdges"/><rect fill="#242f38" x="12.2" y="1.5" width="12.2" height="24.65" shape-rendering="crispEdges"/><rect fill="#242f38" x="24.4" y="1.5" width="61" height="24.65" shape-rendering="crispEdges"/><rect fill="#242f38" x="85.4" y="1.5" width="12.2" height="24.65" shape-rendering="crispEdges"/><rect fill="#242f38" x="97.6" y="1.5" width="463.6" height="24.65" shape-rendering="crispEdges"/><rect fill="#242f38" x="561.2" y="1.5" width="158.6" height="24.65" shape-rendering="crispEdges"/><rect fill="#242f38" x="719.8" y="1.5" width="402.6" height="24.65" shape-rendering="crispEdges"/><rect fill="#242f38" x="1122.4" y="1.5" width="463.6" height="24.65" shape-rendering="crispEdges"/><rect fill="#242f38" x="1586" y="1.5" width="12.2" height="24.65" shape-rendering="crispEdges"/><rect fill="#242f38" x="1598.2" y="1.5" width="0" height="24.65" shape-rendering="crispEdges"/><rect fill="#242f38" x="1598.2" y="1.5" width="97.6" height="24.65" shape-rendering="crispEdges"/><rect fill="#242f38" x="1695.8" y="1.5" width="12.2" height="24.65" shape-rendering="crispEdges"/><rect fill="#1e1e1e" x="0" y="25.9" width="12.2" height="24.65" shape-rendering="crispEdges"/><rect fill="#1e1e1e" x="12.2" y="25.9" width="170.8" height="24.65" shape-rendering="crispEdges"/><rect fill="#1e1e1e" x="183" y="25.9" width="475.8" height="24.65" shape-rendering="crispEdges"/><rect fill="#1e1e1e" x="658.8" y="25.9" width="122" height="24.65" shape-rendering="crispEdges"/><rect fill="#1e1e1e" x="780.8" y="25.9" width="475.8" height="24.65" shape-rendering="crispEdges"/><rect fill="#1e1e1e" x="1256.6" y="25.9" width="48.8" height="24.65" shape-rendering="crispEdges"/><rect fill="#1e1e1e" x="1305.4" y="25.9" width="390.4" height="24.65" shape-rendering="crispEdges"/><rect fill="#1e1e1e" x="1695.8" y="25.9" width="12.2" height="24.65" shape-rendering="crispEdges"/><rect fill="#2d3740" x="0" y="50.3" width="244" height="24.65" shape-rendering="crispEdges"/><rect fill="#2d3740" x="244" y="50.3" width="73.2" height="24.65" shape-rendering="crispEdges"/><rect fill="#2d3740" x="317.2" y="50.3" width="134.2" height="24.65" shape-rendering="crispEdges"/><rect fill="#2d3740" x="451.4" y="50.3" width="134.2" height="24.65" shape-rendering="crispEdges"/><rect fill="#2d3740" x="585.6" y="50.3" width="122" height="24.65" shape-rendering="crispEdges"/><rect fill="#2d3740" x="707.6" y="50.3" width="146.4" height="24.65" shape-rendering="crispEdges"/><rect fill="#2b3339" x="854" y="50.3" width="854" height="24.65" shape-rendering="crispEdges"/><rect fill="#0178d4" x="0" y="74.7" width="244" height="24.65" shape-rendering="crispEdges"/><rect fill="#0178d4" x="244" y="74.7" width="73.2" height="24.65" shape-rendering="crispEdges"/><rect fill="#0178d4" x="317.2" y="74.7" width="134.2" height="24.65" shape-rendering="crispEdges"/><rect fill="#0178d4" x="451.4" y="74.7" width="134.2" height="24.65" shape-rendering="crispEdges"/><rect fill="#0178d4" x="585.6" y="74.7" width="122" height="24.65" shape-rendering="crispEdges"/><rect fill="#0178d4" x="707.6" y="74.7" width="146.4" height="24.65" shape-rendering="crispEdges"/><rect fill="#1e1e1e" x="854" y="74.7" width="854" height="24.65" shape-rendering="crispEdges"/><rect fill="#272727" x="0" y="99.1" width="244" height="24.65" shape-rendering="crispEdges"/><rect fill="#272727" x="244" y="99.1" width="73.2" height="24.65" shape-rendering="crispEdges"/><rect fill="#272727" x="317.2" y="99.1" width="134.2" height="24.65" shape-rendering="crispEdges"/><rect fill="#272727" x="451.4" y="99.1" width="134.2" height="24.65" shape-rendering="crispEdges"/><rect fill="#272727" x="585.6" y="99.1" width="122" height="24.65" shape-rendering="crispEdges"/><rect fill="#272727" x="707.6" y="99.1" width="12.2" height="24.65" shape-rendering="crispEdges"/><rect fill="#272727" x="719.8" y="99.1" width="24.4" height="24.65" shape-rendering="crispEdges"/><rect fill="#272727" x="744.2" y="99.1" width="109.8" height="24.65" shape-rendering="crispEdges"/><rect fill="#272727" x="854" y="99.1" width="854" height="24.65" shape-rendering="crispEdges"/><rect fill="#1c1c1c" x="0" y="123.5" width="244" height="24.65" shape-rendering="crispEdges"/><rect fill="#1c1c1c" x="244" y="123.5" width="73.2" height="24.65" shape-rendering="crispEdges"/><rect fill="#1c1c1c" x="317.2" y="123.5" width="134.2" height="24.65" shape-rendering="crispEdges"/><rect fill="#1c1c1c" x="451.4" y="123.5" width="134.2" height="24.65" shape-rendering="crispEdges"/><rect fill="#1c1c1c" x="585.6" y="123.5" width="122" height="24.65" shape-rendering="crispEdges"/><rect fill="#1c1c1c" x="707.6" y="123.5" width="12.2" height="24.65" shape-rendering="crispEdges"/><rect fill="#1c1c1c" x="719.8" y="123.5" width="24.4" height="24.65" shape-rendering="crispEdges"/><rect fill="#1c1c1c" x="744.2" y="123.5" width="109.8" height="24.65" shape-rendering="crispEdges"/><rect fill="#1e1e1e" x="854" y="123.5" width="854" height="24.65" shape-rendering="crispEdges"/><rect fill="#272727" x="0" y="147.9" width="244" height="24.65" shape-rendering="crispEdges"/><rect fill="#272727" x="244" y="147.9" width="73.2" height="24.65" shape-rendering="crispEdges"/><rect fill="#272727" x="317.2" y="147.9" width="134.2" height="24.65" shape-rendering="crispEdges"/><rect fill="#272727" x="451.4" y="147.9" width="134.2" height="24.65" shape-rendering="crispEdges"/><rect fill="#272727" x="585.6" y="147.9" width="122" height="24.65" shape-rendering="crispEdges"/><rect fill="#272727" x="707.6" y="147.9" width="12.2" height="24.65" shape-rendering="crispEdges"/><rect fill="#272727" x="719.8" y="147.9" width="24.4" height="24.65" shape-rendering="crispEdges"/><rect fill="#272727" x="744.2" y="147.9" width="109.8" height="24.65" shape-rendering="crispEdges"/><rect fill="#272727" x="854" y="147.9" width="854" height="24.65" shape-rendering="crispEdges"/><rect fill="#1c1c1c" x="0" y="172.3" width="244" height="24.65" shape-rendering="crispEdges"/><rect fill="#1c1c1c" x="244" y="172.3" width="73.2" height="24.65" shape-rendering="crispEdges"/><rect fill="#1c1c1c" x="317.2" y="172.3" width="134.2" height="24.65" shape-rendering="crispEdges"/><rect fill="#1c1c1c" x="451.4" y="172.3" width="134.2" height="24.65" shape-rendering="crispEdges"/><rect fill="#1c1c1c" x="585.6" y="172.3" width="122" height="24.65" shape-rendering="crispEdges"/><rect fill="#1c1c1c" x="707.6" y="172.3" width="12.2" height="24.65" shape-rendering="crispEdges"/><rect fill="#1c1c1c" x="719.8" y="172.3" width="24.4" height="24.65" shape-rendering="crispEdges"/><rect fill="#1c1c1c" x="744.2" y="172.3" width="109.8" height="24.65" shape-rendering="crispEdges"/><rect fill="#1e1e1e" x="854" y="172.3" width="854" height="24.65" shape-rendering="crispEdges"/><rect fill="#272727" x="0" y="196.7" width="244" height="24.65" shape-rendering="crispEdges"/><rect fill="#272727" x="244" y="196.7" width="73.2" height="24.65" shape-rendering="crispEdges"/><rect fill="#272727" x="317.2" y="196.7" width="134.2" height="24.65" shape-rendering="crispEdges"/><rect fill="#272727" x="451.4" y="196.7" width="134.2" height="24.65" shape-rendering="crispEdges"/><rect fill="#272727" x="585.6" y="196.7" width="122" height="24.65" shape-rendering="crispEdges"/><rect fill="#272727" x="707.6" y="196.7" width="12.2" height="24.65" shape-rendering="crispEdges"/><rect fill="#272727" x="719.8" y="196.7" width="48.8" height="24.65" shape-rendering="crispEdges"/><rect fill="#272727" x="768.6" y="196.7" width="85.4" height="24.65" shape-rendering="crispEdges"/><rect fill="#272727" x="854" y="196.7" width="854" height="24.65" shape-rendering="crispEdges"/><rect fill="#1c1c1c" x="0" y="221.1" width="244" height="24.65" shape-rendering="crispEdges"/><rect fill="#1c1c1c" x="244" y="221.1" width="73.2" height="24.65" shape-rendering="crispEdges"/><rect fill="#1c1c1c" x="317.2" y="221.1" width="134.2" height="24.65" shape-rendering="crispEdges"/><rect fill="#1c1c1c" x="451.4" y="221.1" width="134.2" height="24.65" shape-rendering="crispEdges"/><rect fill="#1c1c1c" x="585.6" y="221.1" width="122" height="24.65" shape-rendering="crispEdges"/><rect fill="#1c1c1c" x="707.6" y="221.1" width="12.2" height="24.65" shape-rendering="crispEdges"/><rect fill="#1c1c1c" x="719.8" y="221.1" width="48.8" height="24.65" shape-rendering="crispEdges"/><rect fill="#1c1c1c" x="768.6" y="221.1" width="85.4" height="24.65" shape-rendering="crispEdges"/><rect fill="#1e1e1e" x="854" y="221.1" width="854" height="24.65" shape-rendering="crispEdges"/><rect fill="#272727" x="0" y="245.5" width="1708" height="24.65" shape-rendering="crispEdges"/><rect fill="#272727" x="0" y="269.9" width="1708" height="24.65" shape-rendering="crispEdges"/><rect fill="#272727" x="0" y="294.3" width="1708" height="24.65" shape-rendering="crispEdges"/><rect fill="#272727" x="0" y="318.7" width="1708" height="24.65" shape-rendering="crispEdges"/><rect fill="#272727" x="0" y="343.1" width="1708" height="24.65" shape-rendering="crispEdges"/><rect fill="#272727" x="0" y="367.5" width="1708" height="24.65" shape-rendering="crispEdges"/><rect fill="#272727" x="0" y="391.9" width="1708" height="24.65" shape-rendering="crispEdges"/><rect fill="#272727" x="0" y="416.3" width="1708" height="24.65" shape-rendering="crispEdges"/><rect fill="#272727" x="0" y="440.7" width="1708" height="24.65" shape-rendering="crispEdges"/><rect fill="#272727" x="0" y="465.1" width="1708" height="24.65" shape-rendering="crispEdges"/><rect fill="#272727" x="0" y="489.5" width="1708" height="24.65" shape-rendering="crispEdges"/><rect fill="#272727" x="0" y="513.9" width="1708" height="24.65" shape-rendering="crispEdges"/><rect fill="#272727" x="0" y="538.3" width="1708" height="24.65" shape-rendering="crispEdges"/><rect fill="#272727" x="0" y="562.7" width="1708" height="24.65" shape-rendering="crispEdges"/><rect fill="#272727" x="0" y="587.1" width="1708" height="24.65" shape-rendering="crispEdges"/><rect fill="#272727" x="0" y="611.5" width="1708" height="24.65" shape-rendering="crispEdges"/><rect fill="#272727" x="0" y="635.9" width="1708" height="24.65" shape-rendering="crispEdges"/><rect fill="#272727" x="0" y="660.3" width="1708" height="24.65" shape-rendering="crispEdges"/><rect fill="#272727" x="0" y="684.7" width="1708" height="24.65" shape-rendering="crispEdges"/><rect fill="#272727" x="0" y="709.1" width="1708" height="24.65" shape-rendering="crispEdges"/><rect fill="#121212" x="0" y="733.5" width="12.2" height="24.65" shape-rendering="crispEdges"/><rect fill="#121212" x="12.2" y="733.5" width="292.8" height="24.65" shape-rendering="crispEdges"/><rect fill="#121212" x="305" y="733.5" width="1390.8" height="24.65" shape-rendering="crispEdges"/><rect fill="#121212" x="1695.8" y="733.5" width="12.2" height="24.65" shape-rendering="crispEdges"/><rect fill="#121212" x="0" y="757.9" width="12.2" height="24.65" shape-rendering="crispEdges"/><rect fill="#121212" x="12.2" y="757.9" width="1683.6" height="24.65" shape-rendering="crispEdges"/><rect fill="#121212" x="1695.8" y="757.9" width="12.2" height="24.65" shape-rendering="crispEdges"/><rect fill="#121212" x="0" y="782.3" width="12.2" height="24.65" shape-rendering="crispEdges"/><rect fill="#121212" x="12.2" y="782.3" width="927.2" height="24.65" shape-rendering="crispEdges"/><rect fill="#121212" x="939.4" y="782.3" width="756.4" height="24.65" shape-rendering="crispEdges"/><rect fill="#121212" x="1695.8" y="782.3" width="12.2" height="24.65" shape-rendering="crispEdges"/><rect fill="#121212" x="0" y="806.7" width="12.2" height="24.65" shape-rendering="crispEdges"/><rect fill="#121212" x="12.2" y="806.7" width="915" height="24.65" shape-rendering="crispEdges"/><rect fill="#121212" x="927.2" y="806.7" width="768.6" height="24.65" shape-rendering="crispEdges"/><rect fill="#121212" x="1695.8" y="806.7" width="12.2" height="24.65" shape-rendering="crispEdges"/><rect fill="#121212" x="0" y="831.1" width="12.2" height="24.65" shape-rendering="crispEdges"/><rect fill="#121212" x="12.2" y="831.1" width="902.8" height="24.65" shape-rendering="crispEdges"/><rect fill="#121212" x="915" y="831.1" width="780.8" height="24.65" shape-rendering="crispEdges"/><rect fill="#121212" x="1695.8" y="831.1" width="12.2" height="24.65" shape-rendering="crispEdges"/><rect fill="#121212" x="0" y="855.5" width="12.2" height="24.65" shape-rendering="crispEdges"/><rect fill="#121212" x="12.2" y="855.5" width="902.8" height="24.65" shape-rendering="crispEdges"/><rect fill="#121212" x="915" y="855.5" width="780.8" height="24.65" shape-rendering="crispEdges"/><rect fill="#121212" x="1695.8" y="855.5" width="12.2" height="24.65" shape-rendering="crispEdges"/><rect fill="#121212" x="0" y="879.9" width="12.2" height="24.65" shape-rendering="crispEdges"/><rect fill="#121212" x="12.2" y="879.9" width="902.8" height="24.65" shape-rendering="crispEdges"/><rect fill="#121212" x="915" y="879.9" width="780.8" height="24.65" shape-rendering="crispEdges"/><rect fill="#121212" x="1695.8" y="879.9" width="12.2" height="24.65" shape-rendering="crispEdges"/><rect fill="#121212" x="0" y="904.3" width="12.2" height="24.65" shape-rendering="crispEdges"/><rect fill="#121212" x="12.2" y="904.3" width="902.8" height="24.65" shape-rendering="crispEdges"/><rect fill="#121212" x="915" y="904.3" width="780.8" height="24.65" shape-rendering="crispEdges"/><rect fill="#121212" x="1695.8" y="904.3" width="12.2" height="24.65" shape-rendering="crispEdges"/><rect fill="#121212" x="0" y="928.7" width="12.2" height="24.65" shape-rendering="crispEdges"/><rect fill="#121212" x="12.2" y="928.7" width="902.8" height="24.65" shape-rendering="crispEdges"/><rect fill="#121212" x="915" y="928.7" width="780.8" height="24.65" shape-rendering="crispEdges"/><rect fill="#121212" x="1695.8" y="928.7" width="12.2" height="24.65" shape-rendering="crispEdges"/><rect fill="#242f38" x="0" y="953.1" width="61" height="24.65" shape-rendering="crispEdges"/><rect fill="#242f38" x="61" y="953.1" width="61" height="24.65" shape-rendering="crispEdges"/><rect fill="#242f38" x="122" y="953.1" width="36.6" height="24.65" shape-rendering="crispEdges"/><rect fill="#242f38" x="158.6" y="953.1" width="97.6" height="24.65" shape-rendering="crispEdges"/><rect fill="#242f38" x="256.2" y="953.1" width="36.6" height="24.65" shape-rendering="crispEdges"/><rect fill="#242f38" x="292.8" y="953.1" width="122" height="24.65" shape-rendering="crispEdges"/><rect fill="#242f38" x="414.8" y="953.1" width="36.6" height="24.65" shape-rendering="crispEdges"/><rect fill="#242f38" x="451.4" y="953.1" width="61" height="24.65" shape-rendering="crispEdges"/><rect fill="#242f38" x="512.4" y="953.1" width="1049.2" height="24.65" shape-rendering="crispEdges"/><rect fill="#242f38" x="1561.6" y="953.1" width="12.2" height="24.65" shape-rendering="crispEdges"/><rect fill="#242f38" x="1573.8" y="953.1" width="24.4" height="24.65" shape-rendering="crispEdges"/><rect fill="#242f38" x="1598.2" y="953.1" width="97.6" height="24.65" shape-rendering="crispEdges"/><rect fill="#242f38" x="1695.8" y="953.1" width="12.2" height="24.65" shape-rendering="crispEdges"/>
    <g class="terminal-3138022346-matrix">
    <text class="terminal-3138022346-r2" x="12.2" y="20" textLength="12.2" clip-path="url(#terminal-3138022346-line-0)">⭘</text><text class="terminal-3138022346-r2" x="561.2" y="20" textLength="158.6" clip-path="url(#terminal-3138022346-line-0)">kube-saver&#160;—&#160;</text><text class="terminal-3138022346-r3" x="719.8" y="20" textLength="402.6" clip-path="url(#terminal-3138022346-line-0)">Kubernetes&#160;Cost&#160;&amp;&#160;Waste&#160;Dashboard</text><text class="terminal-3138022346-r1" x="1708" y="20" textLength="12.2" clip-path="url(#terminal-3138022346-line-0)">
</text><text class="terminal-3138022346-r4" x="12.2" y="44.4" textLength="170.8" clip-path="url(#terminal-3138022346-line-1)">Cost&#160;Dashboard</text><text class="terminal-3138022346-r2" x="183" y="44.4" textLength="475.8" clip-path="url(#terminal-3138022346-line-1)">&#160;&#160;│&#160;&#160;Requested:&#160;$406.79/mo&#160;&#160;│&#160;&#160;Wasted:&#160;</text><text class="terminal-3138022346-r5" x="658.8" y="44.4" textLength="122" clip-path="url(#terminal-3138022346-line-1)">$406.79/mo</text><text class="terminal-3138022346-r2" x="780.8" y="44.4" textLength="475.8" clip-path="url(#terminal-3138022346-line-1)">&#160;&#160;│&#160;&#160;Annual:&#160;$4881.51&#160;&#160;│&#160;&#160;Waste&#160;ratio:&#160;</text><text class="terminal-3138022346-r6" x="1256.6" y="44.4" textLength="48.8" clip-path="url(#terminal-3138022346-line-1)">100%</text><text class="terminal-3138022346-r1" x="1708" y="44.4" textLength="12.2" clip-path="url(#terminal-3138022346-line-1)">
</text><text class="terminal-3138022346-r4" x="0" y="68.8" textLength="244" clip-path="url(#terminal-3138022346-line-2)">&#160;Namespace&#160;&#160;&#160;&#160;&#160;&#160;&#160;&#160;&#160;&#160;</text><text class="terminal-3138022346-r4" x="244" y="68.8" textLength="73.2" clip-path="url(#terminal-3138022346-line-2)">&#160;Pods&#160;</text><text class="terminal-3138022346-r4" x="317.2" y="68.8" textLength="134.2" clip-path="url(#terminal-3138022346-line-2)">&#160;CPU&#160;Waste&#160;</text><text class="terminal-3138022346-r4" x="451.4" y="68.8" textLength="134.2" clip-path="url(#terminal-3138022346-line-2)">&#160;Mem&#160;Waste&#160;</text><text class="terminal-3138022346-r4" x="585.6" y="68.8" textLength="122" clip-path="url(#terminal-3138022346-line-2)">&#160;Waste/mo&#160;</text><text class="terminal-3138022346-r4" x="707.6" y="68.8" textLength="146.4" clip-path="url(#terminal-3138022346-line-2)">&#160;Efficiency&#160;</text><text class="terminal-3138022346-r1" x="1708" y="68.8" textLength="12.2" clip-path="url(#terminal-3138022346-line-2)">
</text><text class="terminal-3138022346-r7" x="0" y="93.2" textLength="244" clip-path="url(#terminal-3138022346-line-3)">&#160;prod&#160;&#160;&#160;&#160;&#160;&#160;&#160;&#160;&#160;&#160;&#160;&#160;&#160;&#160;&#160;</text><text class="terminal-3138022346-r7" x="244" y="93.2" textLength="73.2" clip-path="url(#terminal-3138022346-line-3)">&#160;12&#160;&#160;&#160;</text><text class="terminal-3138022346-r7" x="317.2" y="93.2" textLength="134.2" clip-path="url(#terminal-3138022346-line-3)">&#160;9750m&#160;&#160;&#160;&#160;&#160;</text><text class="terminal-3138022346-r7" x="451.4" y="93.2" textLength="134.2" clip-path="url(#terminal-3138022346-line-3)">&#160;12032Mi&#160;&#160;&#160;</text><text class="terminal-3138022346-r7" x="585.6" y="93.2" textLength="122" clip-path="url(#terminal-3138022346-line-3)">&#160;$327.59&#160;&#160;</text><text class="terminal-3138022346-r7" x="707.6" y="93.2" textLength="146.4" clip-path="url(#terminal-3138022346-line-3)">&#160;0%&#160;&#160;&#160;&#160;&#160;&#160;&#160;&#160;&#160;</text><text class="terminal-3138022346-r1" x="1708" y="93.2" textLength="12.2" clip-path="url(#terminal-3138022346-line-3)">
</text><text class="terminal-3138022346-r2" x="0" y="117.6" textLength="244" clip-path="url(#terminal-3138022346-line-4)">&#160;staging&#160;&#160;&#160;&#160;&#160;&#160;&#160;&#160;&#160;&#160;&#160;&#160;</text><text class="terminal-3138022346-r2" x="244" y="117.6" textLength="73.2" clip-path="url(#terminal-3138022346-line-4)">&#160;5&#160;&#160;&#160;&#160;</text><text class="terminal-3138022346-r2" x="317.2" y="117.6" textLength="134.2" clip-path="url(#terminal-3138022346-line-4)">&#160;2100m&#160;&#160;&#160;&#160;&#160;</text><text class="terminal-3138022346-r2" x="451.4" y="117.6" textLength="134.2" clip-path="url(#terminal-3138022346-line-4)">&#160;2048Mi&#160;&#160;&#160;&#160;</text><text class="terminal-3138022346-r2" x="585.6" y="117.6" textLength="122" clip-path="url(#terminal-3138022346-line-4)">&#160;$68.62&#160;&#160;&#160;</text><text class="terminal-3138022346-r6" x="719.8" y="117.6" textLength="24.4" clip-path="url(#terminal-3138022346-line-4)">0%</text><text class="terminal-3138022346-r1" x="1708" y="117.6" textLength="12.2" clip-path="url(#terminal-3138022346-line-4)">
</text><text class="terminal-3138022346-r2" x="0" y="142" textLength="244" clip-path="url(#terminal-3138022346-line-5)">&#160;data&#160;&#160;&#160;&#160;&#160;&#160;&#160;&#160;&#160;&#160;&#160;&#160;&#160;&#160;&#160;</text><text class="terminal-3138022346-r2" x="244" y="142" textLength="73.2" clip-path="url(#terminal-3138022346-line-5)">&#160;1&#160;&#160;&#160;&#160;</text><text class="terminal-3138022346-r2" x="317.2" y="142" textLength="134.2" clip-path="url(#terminal-3138022346-line-5)">&#160;100m&#160;&#160;&#160;&#160;&#160;&#160;</text><text class="terminal-3138022346-r2" x="451.4" y="142" textLength="134.2" clip-path="url(#terminal-3138022346-line-5)">&#160;256Mi&#160;&#160;&#160;&#160;&#160;</text><text class="terminal-3138022346-r2" x="585.6" y="142" textLength="122" clip-path="url(#terminal-3138022346-line-5)">&#160;$3.83&#160;&#160;&#160;&#160;</text><text class="terminal-3138022346-r6" x="719.8" y="142" textLength="24.4" clip-path="url(#terminal-3138022346-line-5)">0%</text><text class="terminal-3138022346-r1" x="1708" y="142" textLength="12.2" clip-path="url(#terminal-3138022346-line-5)">
</text><text class="terminal-3138022346-r2" x="0" y="166.4" textLength="244" clip-path="url(#terminal-3138022346-line-6)">&#160;dev&#160;&#160;&#160;&#160;&#160;&#160;&#160;&#160;&#160;&#160;&#160;&#160;&#160;&#160;&#160;&#160;</text><text class="terminal-3138022346-r2" x="244" y="166.4" textLength="73.2" clip-path="url(#terminal-3138022346-line-6)">&#160;1&#160;&#160;&#160;&#160;</text><text class="terminal-3138022346-r2" x="317.2" y="166.4" textLength="134.2" clip-path="url(#terminal-3138022346-line-6)">&#160;100m&#160;&#160;&#160;&#160;&#160;&#160;</text><text class="terminal-3138022346-r2" x="451.4" y="166.4" textLength="134.2" clip-path="url(#terminal-3138022346-line-6)">&#160;128Mi&#160;&#160;&#160;&#160;&#160;</text><text class="terminal-3138022346-r2" x="585.6" y="166.4" textLength="122" clip-path="url(#terminal-3138022346-line-6)">&#160;$3.38&#160;&#160;&#160;&#160;</text><text class="terminal-3138022346-r6" x="719.8" y="166.4" textLength="24.4" clip-path="url(#terminal-3138022346-line-6)">0%</text><text class="terminal-3138022346-r1" x="1708" y="166.4" textLength="12.2" clip-path="url(#terminal-3138022346-line-6)">
</text><text class="terminal-3138022346-r2" x="0" y="190.8" textLength="244" clip-path="url(#terminal-3138022346-line-7)">&#160;monitoring&#160;&#160;&#160;&#160;&#160;&#160;&#160;&#160;&#160;</text><text class="terminal-3138022346-r2" x="244" y="190.8" textLength="73.2" clip-path="url(#terminal-3138022346-line-7)">&#160;1&#160;&#160;&#160;&#160;</text><text class="terminal-3138022346-r2" x="317.2" y="190.8" textLength="134.2" clip-path="url(#terminal-3138022346-line-7)">&#160;100m&#160;&#160;&#160;&#160;&#160;&#160;</text><text class="terminal-3138022346-r2" x="451.4" y="190.8" textLength="134.2" clip-path="url(#terminal-3138022346-line-7)">&#160;128Mi&#160;&#160;&#160;&#160;&#160;</text><text class="terminal-3138022346-r2" x="585.6" y="190.8" textLength="122" clip-path="url(#terminal-3138022346-line-7)">&#160;$3.38&#160;&#160;&#160;&#160;</text><text class="terminal-3138022346-r6" x="719.8" y="190.8" textLength="24.4" clip-path="url(#terminal-3138022346-line-7)">0%</text><text class="terminal-3138022346-r1" x="1708" y="190.8" textLength="12.2" clip-path="url(#terminal-3138022346-line-7)">
</text><text class="terminal-3138022346-r2" x="0" y="215.2" textLength="244" clip-path="url(#terminal-3138022346-line-8)">&#160;default&#160;&#160;&#160;&#160;&#160;&#160;&#160;&#160;&#160;&#160;&#160;&#160;</text><text class="terminal-3138022346-r2" x="244" y="215.2" textLength="73.2" clip-path="url(#terminal-3138022346-line-8)">&#160;0&#160;&#160;&#160;&#160;</text><text class="terminal-3138022346-r2" x="317.2" y="215.2" textLength="134.2" clip-path="url(#terminal-3138022346-line-8)">&#160;0m&#160;&#160;&#160;&#160;&#160;&#160;&#160;&#160;</text><text class="terminal-3138022346-r2" x="451.4" y="215.2" textLength="134.2" clip-path="url(#terminal-3138022346-line-8)">&#160;0Mi&#160;&#160;&#160;&#160;&#160;&#160;&#160;</text><text class="terminal-3138022346-r2" x="585.6" y="215.2" textLength="122" clip-path="url(#terminal-3138022346-line-8)">&#160;$0.00&#160;&#160;&#160;&#160;</text><text class="terminal-3138022346-r8" x="719.8" y="215.2" textLength="48.8" clip-path="url(#terminal-3138022346-line-8)">100%</text><text class="terminal-3138022346-r1" x="1708" y="215.2" textLength="12.2" clip-path="url(#terminal-3138022346-line-8)">
</text><text class="terminal-3138022346-r2" x="0" y="239.6" textLength="244" clip-path="url(#terminal-3138022346-line-9)">&#160;local-path-storage&#160;</text><text class="terminal-3138022346-r2" x="244" y="239.6" textLength="73.2" clip-path="url(#terminal-3138022346-line-9)">&#160;1&#160;&#160;&#160;&#160;</text><text class="terminal-3138022346-r2" x="317.2" y="239.6" textLength="134.2" clip-path="url(#terminal-3138022346-line-9)">&#160;0m&#160;&#160;&#160;&#160;&#160;&#160;&#160;&#160;</text><text class="terminal-3138022346-r2" x="451.4" y="239.6" textLength="134.2" clip-path="url(#terminal-3138022346-line-9)">&#160;0Mi&#160;&#160;&#160;&#160;&#160;&#160;&#160;</text><text class="terminal-3138022346-r2" x="585.6" y="239.6" textLength="122" clip-path="url(#terminal-3138022346-line-9)">&#160;$0.00&#160;&#160;&#160;&#160;</text><text class="terminal-3138022346-r8" x="719.8" y="239.6" textLength="48.8" clip-path="url(#terminal-3138022346-line-9)">100%</text><text class="terminal-3138022346-r1" x="1708" y="239.6" textLength="12.2" clip-path="url(#terminal-3138022346-line-9)">
</text><text class="terminal-3138022346-r1" x="1708" y="264" textLength="12.2" clip-path="url(#terminal-3138022346-line-10)">
</text><text class="terminal-3138022346-r1" x="1708" y="288.4" textLength="12.2" clip-path="url(#terminal-3138022346-line-11)">
</text><text class="terminal-3138022346-r1" x="1708" y="312.8" textLength="12.2" clip-path="url(#terminal-3138022346-line-12)">
</text><text class="terminal-3138022346-r1" x="1708" y="337.2" textLength="12.2" clip-path="url(#terminal-3138022346-line-13)">
</text><text class="terminal-3138022346-r1" x="1708" y="361.6" textLength="12.2" clip-path="url(#terminal-3138022346-line-14)">
</text><text class="terminal-3138022346-r1" x="1708" y="386" textLength="12.2" clip-path="url(#terminal-3138022346-line-15)">
</text><text class="terminal-3138022346-r1" x="1708" y="410.4" textLength="12.2" clip-path="url(#terminal-3138022346-line-16)">
</text><text class="terminal-3138022346-r1" x="1708" y="434.8" textLength="12.2" clip-path="url(#terminal-3138022346-line-17)">
</text><text class="terminal-3138022346-r1" x="1708" y="459.2" textLength="12.2" clip-path="url(#terminal-3138022346-line-18)">
</text><text class="terminal-3138022346-r1" x="1708" y="483.6" textLength="12.2" clip-path="url(#terminal-3138022346-line-19)">
</text><text class="terminal-3138022346-r1" x="1708" y="508" textLength="12.2" clip-path="url(#terminal-3138022346-line-20)">
</text><text class="terminal-3138022346-r1" x="1708" y="532.4" textLength="12.2" clip-path="url(#terminal-3138022346-line-21)">
</text><text class="terminal-3138022346-r1" x="1708" y="556.8" textLength="12.2" clip-path="url(#terminal-3138022346-line-22)">
</text><text class="terminal-3138022346-r1" x="1708" y="581.2" textLength="12.2" clip-path="url(#terminal-3138022346-line-23)">
</text><text class="terminal-3138022346-r1" x="1708" y="605.6" textLength="12.2" clip-path="url(#terminal-3138022346-line-24)">
</text><text class="terminal-3138022346-r1" x="1708" y="630" textLength="12.2" clip-path="url(#terminal-3138022346-line-25)">
</text><text class="terminal-3138022346-r1" x="1708" y="654.4" textLength="12.2" clip-path="url(#terminal-3138022346-line-26)">
</text><text class="terminal-3138022346-r1" x="1708" y="678.8" textLength="12.2" clip-path="url(#terminal-3138022346-line-27)">
</text><text class="terminal-3138022346-r1" x="1708" y="703.2" textLength="12.2" clip-path="url(#terminal-3138022346-line-28)">
</text><text class="terminal-3138022346-r1" x="1708" y="727.6" textLength="12.2" clip-path="url(#terminal-3138022346-line-29)">
</text><text class="terminal-3138022346-r4" x="12.2" y="752" textLength="292.8" clip-path="url(#terminal-3138022346-line-30)">Namespace&#160;Cost&#160;Bar&#160;Chart</text><text class="terminal-3138022346-r1" x="1708" y="752" textLength="12.2" clip-path="url(#terminal-3138022346-line-30)">
</text><text class="terminal-3138022346-r1" x="1708" y="776.4" textLength="12.2" clip-path="url(#terminal-3138022346-line-31)">
</text><text class="terminal-3138022346-r2" x="12.2" y="800.8" textLength="927.2" clip-path="url(#terminal-3138022346-line-32)">&#160;&#160;prod&#160;&#160;&#160;&#160;&#160;&#160;&#160;&#160;&#160;&#160;&#160;&#160;&#160;&#160;&#160;&#160;&#160;&#160;&#160;&#160;&#160;&#160;████████████████████████████████████████&#160;$327.59</text><text class="terminal-3138022346-r1" x="1708" y="800.8" textLength="12.2" clip-path="url(#terminal-3138022346-line-32)">
</text><text class="terminal-3138022346-r2" x="12.2" y="825.2" textLength="915" clip-path="url(#terminal-3138022346-line-33)">&#160;&#160;staging&#160;&#160;&#160;&#160;&#160;&#160;&#160;&#160;&#160;&#160;&#160;&#160;&#160;&#160;&#160;&#160;&#160;&#160;&#160;████████░░░░░░░░░░░░░░░░░░░░░░░░░░░░░░░░&#160;$68.62</text><text class="terminal-3138022346-r1" x="1708" y="825.2" textLength="12.2" clip-path="url(#terminal-3138022346-line-33)">
</text><text class="terminal-3138022346-r2" x="12.2" y="849.6" textLength="902.8" clip-path="url(#terminal-3138022346-line-34)">&#160;&#160;data&#160;&#160;&#160;&#160;&#160;&#160;&#160;&#160;&#160;&#160;&#160;&#160;&#160;&#160;&#160;&#160;&#160;&#160;&#160;&#160;&#160;&#160;░░░░░░░░░░░░░░░░░░░░░░░░░░░░░░░░░░░░░░░░&#160;$3.83</text><text class="terminal-3138022346-r1" x="1708" y="849.6" textLength="12.2" clip-path="url(#terminal-3138022346-line-34)">
</text><text class="terminal-3138022346-r2" x="12.2" y="874" textLength="902.8" clip-path="url(#terminal-3138022346-line-35)">&#160;&#160;dev&#160;&#160;&#160;&#160;&#160;&#160;&#160;&#160;&#160;&#160;&#160;&#160;&#160;&#160;&#160;&#160;&#160;&#160;&#160;&#160;&#160;&#160;&#160;░░░░░░░░░░░░░░░░░░░░░░░░░░░░░░░░░░░░░░░░&#160;$3.38</text><text class="terminal-3138022346-r1" x="1708" y="874" textLength="12.2" clip-path="url(#terminal-3138022346-line-35)">
</text><text class="terminal-3138022346-r2" x="12.2" y="898.4" textLength="902.8" clip-path="url(#terminal-3138022346-line-36)">&#160;&#160;monitoring&#160;&#160;&#160;&#160;&#160;&#160;&#160;&#160;&#160;&#160;&#160;&#160;&#160;&#160;&#160;&#160;░░░░░░░░░░░░░░░░░░░░░░░░░░░░░░░░░░░░░░░░&#160;$3.38</text><text class="terminal-3138022346-r1" x="1708" y="898.4" textLength="12.2" clip-path="url(#terminal-3138022346-line-36)">
</text><text class="terminal-3138022346-r2" x="12.2" y="922.8" textLength="902.8" clip-path="url(#terminal-3138022346-line-37)">&#160;&#160;default&#160;&#160;&#160;&#160;&#160;&#160;&#160;&#160;&#160;&#160;&#160;&#160;&#160;&#160;&#160;&#160;&#160;&#160;&#160;░░░░░░░░░░░░░░░░░░░░░░░░░░░░░░░░░░░░░░░░&#160;$0.00</text><text class="terminal-3138022346-r1" x="1708" y="922.8" textLength="12.2" clip-path="url(#terminal-3138022346-line-37)">
</text><text class="terminal-3138022346-r2" x="12.2" y="947.2" textLength="902.8" clip-path="url(#terminal-3138022346-line-38)">&#160;&#160;local-path-storage&#160;&#160;&#160;&#160;&#160;&#160;&#160;&#160;░░░░░░░░░░░░░░░░░░░░░░░░░░░░░░░░░░░░░░░░&#160;$0.00</text><text class="terminal-3138022346-r1" x="1708" y="947.2" textLength="12.2" clip-path="url(#terminal-3138022346-line-38)">
</text><text class="terminal-3138022346-r9" x="0" y="971.6" textLength="61" clip-path="url(#terminal-3138022346-line-39)">&#160;esc&#160;</text><text class="terminal-3138022346-r2" x="61" y="971.6" textLength="61" clip-path="url(#terminal-3138022346-line-39)">Back&#160;</text><text class="terminal-3138022346-r9" x="122" y="971.6" textLength="36.6" clip-path="url(#terminal-3138022346-line-39)">&#160;r&#160;</text><text class="terminal-3138022346-r2" x="158.6" y="971.6" textLength="97.6" clip-path="url(#terminal-3138022346-line-39)">Refresh&#160;</text><text class="terminal-3138022346-r9" x="256.2" y="971.6" textLength="36.6" clip-path="url(#terminal-3138022346-line-39)">&#160;1&#160;</text><text class="terminal-3138022346-r2" x="292.8" y="971.6" textLength="122" clip-path="url(#terminal-3138022346-line-39)">Dashboard&#160;</text><text class="terminal-3138022346-r9" x="414.8" y="971.6" textLength="36.6" clip-path="url(#terminal-3138022346-line-39)">&#160;q&#160;</text><text class="terminal-3138022346-r2" x="451.4" y="971.6" textLength="61" clip-path="url(#terminal-3138022346-line-39)">Quit&#160;</text><text class="terminal-3138022346-r10" x="1561.6" y="971.6" textLength="12.2" clip-path="url(#terminal-3138022346-line-39)">▏</text><text class="terminal-3138022346-r9" x="1573.8" y="971.6" textLength="24.4" clip-path="url(#terminal-3138022346-line-39)">^p</text><text class="terminal-3138022346-r2" x="1598.2" y="971.6" textLength="97.6" clip-path="url(#terminal-3138022346-line-39)">&#160;palette</text>
    </g>
    </g>
</svg>
